<!-- Generated by IcoMoon.io -->
<svg version="1.1" xmlns="http://www.w3.org/2000/svg" width="32" height="32" viewBox="0 0 32 32">
<path d="M32 29.44l-2.56-21.76c-0.107-1.067-0.853-2.027-1.813-2.347l-6.293-2.453-0.853-2.56c-0.107-0.107-0.32-0.32-0.64-0.32h-7.573c-0.213 0-0.427 0.107-0.533 0.32l-1.173 2.56c-1.28 0.427-2.56 0.96-3.84 1.493-1.6 0.747-2.88 1.173-3.733 2.56l-2.56 4.8c-0.32 0.533-0.427 1.067-0.427 1.6v7.573c0 0.533 0.107 1.067 0.32 1.493l4.16 8.533c0.32 0.533 0.96 0.853 1.6 0.533 0 0 0.107 0 0.107-0.107l2.453-1.707c1.6 1.493 3.733 2.347 5.973 2.24 0.213 0 0.427-0.213 0.533-0.427l0.853-2.667 1.173 2.88c0.107 0.213 0.32 0.32 0.533 0.32 4.267 0 7.787-3.52 7.787-7.787v-0.107l1.493 6.72c0.107 0.64 0.747 1.067 1.387 0.853 0 0 0.107 0 0.107 0l2.667-0.853c0.64-0.32 0.96-0.747 0.853-1.387zM20.16 3.307l-1.813 3.627-1.6-1.28 2.88-3.947 0.533 1.6zM17.707 2.56h-3.307l-0.96-1.387h5.227l-0.96 1.387zM16.853 3.733l-0.853 1.173-0.747-1.173h1.6zM12.373 1.707l2.773 3.947-1.707 1.173-1.707-3.627 0.64-1.493zM5.547 30.4l-4.16-8.32c-0.107-0.32-0.213-0.64-0.213-1.067v-7.573c0-0.427 0.107-0.747 0.32-1.067l2.453-4.907c0.533-0.853 1.387-1.173 2.453-1.707v12.587l-0.853-2.987c-0.107-0.32-0.427-0.427-0.747-0.427-0.32 0.107-0.533 0.427-0.427 0.747 0 0 0 0 0 0l2.987 10.773-2.133 1.173c-0.32 0.107-0.427 0.533-0.213 0.747 0.107 0.32 0.533 0.427 0.747 0.213l1.92-1.067 0.32 1.173-2.453 1.707zM14.187 30.827c-1.813-0.107-3.627-0.853-4.907-2.133l-1.707-6.187v-17.28c1.173-0.533 2.453-0.96 3.307-1.173l1.813 3.947c0.107 0.32 0.533 0.427 0.747 0.32 0 0 0 0 0.107 0l1.92-1.28-0.107 19.947-1.173 3.84zM22.4 28.907c-1.173 1.173-2.667 1.813-4.267 1.92l-1.6-3.947 0.107-19.84 1.6 1.28c0.213 0.213 0.64 0.213 0.747-0.107 0 0 0-0.107 0.107-0.107l2.027-4.053 3.2 1.28v18.88c0 1.707-0.64 3.413-1.92 4.693v0zM28.16 30.507l-2.667-11.627v-13.013l1.6 0.533c0.64 0.213 1.067 0.747 1.067 1.387l2.347 19.84-1.92 0.427c-0.32 0.107-0.533 0.427-0.427 0.747 0.107 0.213 0.32 0.427 0.533 0.427 0 0.107 1.813-0.427 1.92-0.427l0.107 0.747-2.56 0.96zM22.933 11.627h-4.373c-0.32 0-0.533 0.213-0.533 0.533v0 3.733c0 0.213 0.107 0.427 0.32 0.533l2.027 1.28c0.107 0.107 0.213 0.107 0.32 0.107 0.107 0.107 2.56-1.173 2.667-1.173 0.213-0.107 0.32-0.32 0.32-0.533l-0.213-3.947c0-0.32-0.213-0.533-0.533-0.533zM20.693 16.533l-1.493-0.96v-2.773h3.2l0.107 2.88-1.813 0.853zM13.653 10.453c0.32 0 0.533-0.213 0.533-0.533s-0.213-0.533-0.533-0.533c-0.32 0-0.533 0.213-0.533 0.533 0 0 0 0 0 0-0.107 0.32 0.213 0.533 0.533 0.533zM13.653 12.907c-0.32 0-0.533 0.213-0.533 0.533s0.213 0.533 0.533 0.533c0.32 0 0.533-0.213 0.533-0.533 0 0 0 0 0 0 0-0.213-0.213-0.533-0.533-0.533zM13.653 16.533c-0.32 0-0.533 0.213-0.533 0.533s0.213 0.533 0.533 0.533c0.32 0 0.533-0.213 0.533-0.533 0-0.213-0.213-0.533-0.533-0.533v0zM13.653 20.267c-0.32 0-0.533 0.213-0.533 0.533s0.213 0.533 0.533 0.533c0.32 0 0.533-0.213 0.533-0.533s-0.213-0.533-0.533-0.533v0zM13.653 23.893c-0.32 0-0.533 0.213-0.533 0.533s0.213 0.533 0.533 0.533c0.32 0 0.533-0.213 0.533-0.533s-0.213-0.533-0.533-0.533v0z"></path>
</svg>
