<!-- Generated by IcoMoon.io -->
<svg version="1.1" xmlns="http://www.w3.org/2000/svg" width="32" height="32" viewBox="0 0 32 32">
<path d="M5.867 32h20.267c1.493 0 2.667-1.173 2.667-2.667v-14.72c0-0.533-0.107-0.96-0.427-1.387l-1.813-2.88c-0.213-0.427-0.32-0.96-0.107-1.387l1.493-4.16c0.213-0.64 0-1.28-0.427-1.707l-2.987-2.667c-0.64-0.533-1.6-0.533-2.133 0.107l-5.973 5.973c-0.213 0.213-0.533 0.213-0.747 0l-6.080-6.080c-0.533-0.533-1.493-0.533-2.133 0l-2.987 2.56c-0.533 0.427-0.64 1.173-0.427 1.707l1.493 4.16c0.213 0.427 0.107 0.96-0.107 1.387l-1.813 2.88c-0.32 0.533-0.427 0.96-0.427 1.493v14.72c0 1.493 1.173 2.667 2.667 2.667zM4.267 29.333v-4.267h2.133l-0.96 2.88c-0.213 0.533 0.107 1.173 0.64 1.387l0.96 0.32c0.533 0.213 1.173-0.107 1.387-0.64l1.387-3.947h4.587v5.867h-8.533c-0.853 0-1.6-0.747-1.6-1.6 0 0 0 0 0 0zM4.267 14.4h10.133v2.133h-10.133v-1.92c0-0.107 0-0.107 0-0.213v0zM9.067 20.693l0.96 0.32-2.667 7.573-0.96-0.32 2.667-7.573zM10.88 21.867h3.52v2.133h-4.267l0.747-2.133zM14.4 17.6v3.2h-3.307c0-0.107 0-0.107-0.107-0.213-0.107-0.213-0.32-0.427-0.64-0.533l-0.96-0.32c-0.533-0.213-1.173 0.107-1.387 0.64l-0.107 0.427h-3.627v-3.2h10.133zM7.467 21.867l-0.747 2.133h-2.453v-2.133h3.2zM27.733 14.4c0 0.107 0 0.107 0 0.213v1.92h-10.133v-2.133h10.133zM24.64 28.693l-2.667-7.573 0.96-0.32 2.667 7.573-0.96 0.32zM17.6 21.867h3.52l0.747 2.133h-4.267v-2.133zM24.533 21.867h3.2v2.133h-2.453l-0.747-2.133zM24.107 20.8l-0.107-0.427c-0.213-0.533-0.853-0.853-1.387-0.64l-0.96 0.32c-0.32 0.107-0.533 0.32-0.64 0.533 0 0.107 0 0.107-0.107 0.213h-3.307v-3.2h10.133v3.2h-3.627zM26.133 30.933h-8.533v-5.867h4.587l1.387 3.947c0.213 0.533 0.853 0.853 1.387 0.64v0l0.96-0.32c0.533-0.213 0.853-0.853 0.64-1.387l-0.96-2.88h2.133v4.267c0 0.853-0.747 1.6-1.6 1.6v0zM23.147 1.173c0.213-0.213 0.533-0.213 0.747 0l2.987 2.56c0.213 0.107 0.213 0.427 0.107 0.533l-1.493 4.267c-0.32 0.747-0.213 1.6 0.213 2.347l1.493 2.453h-9.6v-6.613l5.547-5.547zM16.533 7.573v23.36h-1.067v-23.36c0.32 0.107 0.747 0.107 1.067 0v0zM6.293 10.88c0.427-0.64 0.533-1.493 0.213-2.347l-1.493-4.16c-0.107-0.213 0-0.427 0.107-0.533l2.987-2.56c0.213-0.213 0.533-0.213 0.747-0.107l5.547 5.547v6.613h-9.6l1.493-2.453z"></path>
</svg>
