<!-- Generated by IcoMoon.io -->
<svg version="1.1" xmlns="http://www.w3.org/2000/svg" width="32" height="32" viewBox="0 0 32 32">
<path d="M29.12 0c-0.107 0-0.107 0 0 0h-14.507c-2.133 0-3.947 1.813-3.947 3.947v1.387c0 0.747 0.64 1.387 1.387 1.387s1.387-0.64 1.387-1.387v-1.387c0-0.747 0.64-1.28 1.387-1.28h6.187l-0.427 0.107c-1.067 0.32-1.813 1.387-1.813 2.56v20.053h-4.053c-0.747 0-1.28-0.64-1.387-1.28v-2.773c0-0.747-0.64-1.387-1.387-1.387s-1.387 0.64-1.387 1.387v2.667c0 2.24 1.813 3.947 3.947 3.947h4.053v1.28c0 1.493 1.173 2.667 2.667 2.667 0.32 0 0.533 0 0.853-0.107l8-2.667c1.067-0.32 1.813-1.387 1.813-2.56v-23.893c0.107-1.493-1.173-2.667-2.56-2.667-0.107 0-0.213 0-0.213 0zM14.293 12.373l-5.333-5.333c-0.533-0.533-1.387-0.533-1.92 0-0.213 0.32-0.427 0.64-0.427 0.96v4.053h-5.333c-0.747 0-1.28 0.64-1.28 1.387s0.64 1.28 1.28 1.28h5.333v3.947c0 0.747 0.64 1.387 1.28 1.387 0.32 0 0.747-0.107 0.96-0.427l5.333-5.333c0.64-0.533 0.64-1.387 0.107-1.92 0 0 0 0 0 0z"></path>
</svg>
