<!-- Generated by IcoMoon.io -->
<svg version="1.1" xmlns="http://www.w3.org/2000/svg" width="32" height="32" viewBox="0 0 32 32">
<path d="M31.147 27.305l-7.36-7.36c3.733-5.973 2.027-13.973-4.053-17.707s-13.867-2.027-17.707 4.053-2.027 13.973 4.16 17.813c4.373 2.773 9.92 2.667 14.187-0.32l7.253 7.147c0.96 1.067 2.667 1.173 3.627 0.107 1.067-0.96 1.173-2.667 0.107-3.627-0.107 0-0.107-0.107-0.213-0.107zM12.907 21.865c-4.8 0-8.747-3.84-8.747-8.747s3.947-8.64 8.747-8.64 8.747 3.84 8.747 8.747c0 4.8-3.84 8.64-8.747 8.64v0z"></path>
</svg>
