<svg id="Group_634" data-name="Group 634" xmlns="http://www.w3.org/2000/svg" xmlns:xlink="http://www.w3.org/1999/xlink" width="50" height="35" viewBox="0 0 50 35">
  <defs>
    <clipPath id="clip-path">
      <rect id="Rectangle_148" data-name="Rectangle 148" width="50" height="35" fill="none"/>
    </clipPath>
  </defs>
  <g id="Group_633" data-name="Group 633" clip-path="url(#clip-path)">
    <path id="Path_178" data-name="Path 178" d="M3.125,0h43.75A3.086,3.086,0,0,1,50,3.045V31.957A3.086,3.086,0,0,1,46.875,35H3.125A3.085,3.085,0,0,1,0,31.957V3.045A3.086,3.086,0,0,1,3.125,0" fill="#26a6d1"/>
    <path id="Path_179" data-name="Path 179" d="M23.173,72.941,18.235,83.582h5.911l.733-1.7h1.675l.733,1.7h6.506V82.287l.58,1.295h3.366l.58-1.322v1.322H51.849l1.645-1.653,1.541,1.653,6.95.014-4.953-5.3,4.953-5.35H55.143l-1.6,1.622-1.492-1.622H37.329l-1.264,2.747-1.294-2.747h-5.9v1.251l-.656-1.251H23.173m1.144,1.511H27.2l3.275,7.216V74.452h3.156l2.53,5.174,2.331-5.174H41.63v7.636H39.719L39.7,76.1l-2.786,5.983H35.208l-2.8-5.983v5.983H28.476l-.745-1.712H23.7l-.744,1.71H20.854l3.463-7.634m19.062,0h7.77l2.377,2.5,2.453-2.5h2.377L54.744,78.29l3.611,3.794H55.871l-2.377-2.529-2.466,2.529h-7.65ZM25.718,75.744l-1.327,3.049h2.652Zm19.58.289v1.394h4.239v1.554H45.3V80.5h4.755l2.209-2.241-2.116-2.229H45.3Z" transform="translate(-15.11 -60.768)" fill="#fff"/>
  </g>
</svg>
