<svg xmlns="http://www.w3.org/2000/svg" width="50" height="35.25" viewBox="0 0 50 35.25">
  <g id="Group_638" data-name="Group 638" transform="translate(0 4)">
    <g id="Group_641" data-name="Group 641">
      <path id="Path_186" data-name="Path 186" d="M46.25,0H2.5A2.865,2.865,0,0,0,0,2.8v28Q0,35,3.75,35h42.5Q50,35,50,30.8V4.2Q50,0,46.25,0" transform="translate(0 -4)" fill="#f4f4f4" fill-rule="evenodd"/>
      <path id="Path_187" data-name="Path 187" d="M49.543,59.045H80.311q3.75,0,3.75-3.75V40.429s-7.45,13.117-34.518,18.616" transform="translate(-34.061 -27.795)" fill="#d97b16" fill-rule="evenodd"/>
      <path id="Path_188" data-name="Path 188" d="M52.038,48.78h.449l1.391,2.075h.007V48.78h.342V51.3h-.435l-1.4-2.075H52.38V51.3h-.342Zm2.839,0h1.629V49.1H55.219v.753h1.2v.321h-1.2v.809H56.57V51.3H54.877Zm2.707.321H56.77V48.78h1.968V49.1h-.813v2.2h-.342Zm1.2-.321h.357l.556,2.018H59.7l.6-2.018h.392l.6,2.018h.007l.557-2.018H62.2L61.47,51.3h-.36L60.5,49.243H60.49L59.88,51.3h-.36Zm4.91,2.589a1.36,1.36,0,0,1-.531-.1,1.237,1.237,0,0,1-.416-.28,1.3,1.3,0,0,1-.271-.421,1.449,1.449,0,0,1,0-1.048,1.3,1.3,0,0,1,.271-.421,1.237,1.237,0,0,1,.416-.28,1.44,1.44,0,0,1,1.062,0,1.234,1.234,0,0,1,.416.28,1.292,1.292,0,0,1,.271.421,1.449,1.449,0,0,1,0,1.048,1.3,1.3,0,0,1-.271.421,1.234,1.234,0,0,1-.416.28,1.36,1.36,0,0,1-.531.1m0-.321a.918.918,0,0,0,.692-.3.948.948,0,0,0,.193-.319,1.158,1.158,0,0,0,0-.781.948.948,0,0,0-.193-.319.945.945,0,0,0-1.384,0,.953.953,0,0,0-.192.319,1.158,1.158,0,0,0,0,.781.953.953,0,0,0,.192.319.918.918,0,0,0,.692.3M65.5,48.78h.888a1.037,1.037,0,0,1,.4.066.682.682,0,0,1,.248.167.572.572,0,0,1,.127.228.9.9,0,0,1,.036.244.653.653,0,0,1-.042.234.664.664,0,0,1-.123.2.7.7,0,0,1-.2.153.681.681,0,0,1-.258.077l.717,1.152h-.428l-.642-1.113h-.382V51.3H65.5Zm.342,1.113h.449a1.23,1.23,0,0,0,.2-.016.529.529,0,0,0,.175-.059.324.324,0,0,0,.123-.123.491.491,0,0,0,0-.417.321.321,0,0,0-.123-.123.529.529,0,0,0-.175-.059,1.229,1.229,0,0,0-.2-.016h-.449Zm1.837-1.113h.342v1.091h.029l1.116-1.091h.478l-1.22,1.166,1.3,1.359h-.5L68.05,50.043h-.029V51.3h-.342Z" transform="translate(-35.776 -33.492)" fill-rule="evenodd"/>
      <path id="Path_189" data-name="Path 189" d="M14.133,23.55h2.354a3.614,3.614,0,0,1,1.139.181,2.776,2.776,0,0,1,.97.553,2.7,2.7,0,0,1,.675.932,3.184,3.184,0,0,1,.253,1.321,2.773,2.773,0,0,1-1.042,2.257,3.207,3.207,0,0,1-1.021.548,3.567,3.567,0,0,1-1.1.181H14.133Zm1.857,5.012a3.766,3.766,0,0,0,.941-.114,2.236,2.236,0,0,0,.772-.354,1.682,1.682,0,0,0,.519-.624,2.093,2.093,0,0,0,.19-.932,2.318,2.318,0,0,0-.169-.928,1.611,1.611,0,0,0-.468-.628,1.958,1.958,0,0,0-.708-.355,3.36,3.36,0,0,0-.9-.114H15.2v4.05Zm4.523-5.012h1.063v5.974H20.512Zm5.3,1.282a.982.982,0,0,0-.451-.358,1.574,1.574,0,0,0-.6-.114,1.5,1.5,0,0,0-.358.042.975.975,0,0,0-.312.135.708.708,0,0,0-.223.241.694.694,0,0,0-.085.35.547.547,0,0,0,.211.464,2.066,2.066,0,0,0,.523.278q.312.118.684.228a2.777,2.777,0,0,1,.683.3,1.694,1.694,0,0,1,.523.515,1.532,1.532,0,0,1,.211.852,1.874,1.874,0,0,1-.177.84,1.717,1.717,0,0,1-.477.595,2.066,2.066,0,0,1-.7.354,2.909,2.909,0,0,1-.835.118,3.133,3.133,0,0,1-1.072-.186,2.064,2.064,0,0,1-.886-.624l.8-.776a1.341,1.341,0,0,0,.51.46,1.434,1.434,0,0,0,.671.164,1.4,1.4,0,0,0,.371-.051,1.147,1.147,0,0,0,.338-.152.789.789,0,0,0,.244-.257.685.685,0,0,0,.093-.358.623.623,0,0,0-.211-.506,1.857,1.857,0,0,0-.523-.3q-.312-.123-.684-.232a2.864,2.864,0,0,1-.683-.3,1.665,1.665,0,0,1-.523-.506,1.512,1.512,0,0,1-.211-.848,1.609,1.609,0,0,1,.19-.8,1.737,1.737,0,0,1,.5-.561,2.177,2.177,0,0,1,.7-.333,3.027,3.027,0,0,1,.81-.11,2.956,2.956,0,0,1,.916.143,2.126,2.126,0,0,1,.8.472h0Zm6.016.118a1.785,1.785,0,0,0-.637-.472,1.721,1.721,0,0,0-.621-.118,2.069,2.069,0,0,0-.839.165,1.917,1.917,0,0,0-.646.456,2.068,2.068,0,0,0-.418.679,2.323,2.323,0,0,0-.148.835,2.561,2.561,0,0,0,.148.886,2.081,2.081,0,0,0,.418.7,1.944,1.944,0,0,0,.646.464,2.024,2.024,0,0,0,.839.169,1.543,1.543,0,0,0,.705-.173,1.919,1.919,0,0,0,.637-.553l.878.624a2.394,2.394,0,0,1-.987.81,3.078,3.078,0,0,1-1.241.253,3.49,3.49,0,0,1-1.269-.223,2.845,2.845,0,0,1-1.65-1.616,3.31,3.31,0,0,1-.237-1.274,3.452,3.452,0,0,1,.237-1.3,2.93,2.93,0,0,1,.654-1,2.87,2.87,0,0,1,1-.637,3.483,3.483,0,0,1,1.269-.224,2.913,2.913,0,0,1,1.127.215,2.622,2.622,0,0,1,.966.73h0Zm8.015-1.4h1.224l1.628,4.514,1.679-4.514h1.147l-2.413,5.974h-.92Zm6.32,0h3.957v.962H47.225V25.98h2.742v.962H47.225v1.62h3.046v.962H46.162Zm5.155,0h2.076a4.232,4.232,0,0,1,.831.08,2.122,2.122,0,0,1,.713.274,1.437,1.437,0,0,1,.5.523,1.685,1.685,0,0,1,.186.835,1.664,1.664,0,0,1-.359,1.088,1.538,1.538,0,0,1-1.025.532l1.586,2.641H54.541l-1.384-2.531h-.776v2.531H51.317Zm1.89,2.531c.152,0,.3-.007.455-.021a1.4,1.4,0,0,0,.418-.1.713.713,0,0,0,.308-.245.78.78,0,0,0,.118-.46.734.734,0,0,0-.11-.422.686.686,0,0,0-.287-.241,1.329,1.329,0,0,0-.392-.105,3.578,3.578,0,0,0-.418-.025h-.919v1.62Z" transform="translate(-9.716 -16.086)" fill-rule="evenodd"/>
      <path id="Path_190" data-name="Path 190" d="M79.141,23.4A3.141,3.141,0,1,1,76,26.541,3.141,3.141,0,0,1,79.141,23.4" transform="translate(-52.25 -16.087)" fill="#d97b16" fill-rule="evenodd"/>
    </g>
  </g>
</svg>
