<svg xmlns="http://www.w3.org/2000/svg" width="50" height="35" viewBox="0 0 50 35">
  <g id="Group_636" data-name="Group 636" transform="translate(0 -0.482)">
    <g id="Group_640" data-name="Group 640">
      <path id="Path_180" data-name="Path 180" d="M50,32a2.978,2.978,0,0,1-2.956,3H2.956A2.978,2.978,0,0,1,0,32V3A2.978,2.978,0,0,1,2.956,0H47.044A2.978,2.978,0,0,1,50,3Z" transform="translate(0 0.482)" fill="#e7e8e3"/>
      <path id="Path_181" data-name="Path 181" d="M108.459,63.919h-5.24a4.029,4.029,0,0,0-4.256,4.256v7.613a.063.063,0,0,0,0,.011,2.326,2.326,0,0,0,2.327,1.674,2.063,2.063,0,0,0,2.18-2.031v-3.8h3.2v3.752c0,2.14-2.754,3.15-4.615,3.158a5.051,5.051,0,0,1-2.96-.928.055.055,0,0,0-.057-.005h0a.054.054,0,0,0-.079.048v8.4a.054.054,0,0,0,.054.054h5.388a4.33,4.33,0,0,0,4.108-4.108V63.973a.054.054,0,0,0-.055-.054" transform="translate(-89.299 -57.437)" fill="#0f549d"/>
      <path id="Path_182" data-name="Path 182" d="M216.731,63.919h-5.19a3.965,3.965,0,0,0-4.256,4.207v4.3a.054.054,0,0,0,.089.042,3.321,3.321,0,0,1,2.091-.828h5.581v1.015a17.509,17.509,0,0,0-3.208-.432,2.578,2.578,0,0,0-2.576,2.575v.049a2.578,2.578,0,0,0,2.576,2.575,16.8,16.8,0,0,0,3.208-.382v.916h-5.581a2.955,2.955,0,0,1-2.087-.825.054.054,0,0,0-.093.038v8.9a.054.054,0,0,0,.054.054h5.338a4.33,4.33,0,0,0,4.108-4.108V63.973a.054.054,0,0,0-.054-.054" transform="translate(-187.042 -57.437)" fill="#b41f36"/>
      <path id="Path_183" data-name="Path 183" d="M333.324,179.631a.054.054,0,0,0,.054.054H335.7a1.191,1.191,0,1,0,0-2.383h-2.323a.054.054,0,0,0-.054.054Z" transform="translate(-300.773 -160.821)" fill="#329947"/>
      <path id="Path_184" data-name="Path 184" d="M326.066,63.919h-5.141A4.232,4.232,0,0,0,317.7,65.2h0a4.142,4.142,0,0,0-1.081,2.794v3.6a.054.054,0,0,0,.054.054H322.9a1.577,1.577,0,0,1,0,3.154.054.054,0,1,0,0,.109,1.618,1.618,0,0,1,1.725,1.528,1.6,1.6,0,0,1-1.725,1.528h-6.229a.054.054,0,0,0-.054.054v8.057a.054.054,0,0,0,.054.054h5.339a4.33,4.33,0,0,0,4.108-4.108V63.973a.054.054,0,0,0-.054-.054" transform="translate(-285.7 -57.437)" fill="#329947"/>
      <path id="Path_185" data-name="Path 185" d="M333.378,151.288H335.7a1.157,1.157,0,0,0,1.142-1.142,1.238,1.238,0,0,0-1.191-1.191h-2.274a.054.054,0,0,0-.054.054v2.225a.054.054,0,0,0,.054.054" transform="translate(-300.773 -132.473)" fill="#329947"/>
    </g>
  </g>
</svg>
