<svg xmlns="http://www.w3.org/2000/svg" width="50" height="35" viewBox="0 0 50 35">
  <g id="Group_632" data-name="Group 632" transform="translate(0 0.476)">
    <g id="Group_639" data-name="Group 639">
      <path id="Path_165" data-name="Path 165" d="M46.25,0H2.5A2.865,2.865,0,0,0,0,2.8v28Q0,35,3.75,35h42.5Q50,35,50,30.8V4.2Q50,0,46.25,0" transform="translate(0 -0.476)" fill="#265697" fill-rule="evenodd"/>
      <path id="Path_166" data-name="Path 166" d="M92.309,21.566a13.009,13.009,0,1,1-26.017.007v-.007a13.009,13.009,0,1,1,26.017-.007Z" transform="translate(-45.576 -3.89)" fill="#dfac16" fill-rule="evenodd"/>
      <path id="Path_167" data-name="Path 167" d="M23.379,8.425a13.15,13.15,0,0,0,.084,26.3A12.884,12.884,0,0,0,32.216,31.3h0a13.244,13.244,0,0,0,1.321-1.408H30.873a12.864,12.864,0,0,1-.97-1.355h4.6a13.288,13.288,0,0,0,.757-1.408H29.145a13.042,13.042,0,0,1-.544-1.381h7.2a13.328,13.328,0,0,0,.37-6.986H28.219a13.238,13.238,0,0,1,.372-1.381h7.2a13.287,13.287,0,0,0-.561-1.408H29.144a12.689,12.689,0,0,1,.746-1.381h4.593a13.253,13.253,0,0,0-1.01-1.408H30.913a12.053,12.053,0,0,1,1.305-1.328,12.885,12.885,0,0,0-8.755-3.427h-.084" transform="translate(-7.187 -3.901)" fill="#bf3126" fill-rule="evenodd"/>
      <path id="Path_168" data-name="Path 168" d="M62.337,47.655l.173-1.19c-.095,0-.234.041-.357.041-.482,0-.536-.259-.505-.451l.389-2.428h.733l.177-1.316h-.691l.141-.818H61.013c-.03.031-.818,4.6-.818,5.16a1.034,1.034,0,0,0,1.1,1.186,3.6,3.6,0,0,0,1.038-.183h0" transform="translate(-41.384 -26.968)" fill="#fff" fill-rule="evenodd"/>
      <path id="Path_169" data-name="Path 169" d="M68.454,46.844a2.185,2.185,0,0,0,2.392,2.448,3.492,3.492,0,0,0,1.463-.23l.244-1.35a4.273,4.273,0,0,1-1.471.344c-1.487,0-1.227-1.121-1.227-1.121h2.815a10.165,10.165,0,0,0,.182-1.277,1.868,1.868,0,0,0-1.975-2.046c-1.393,0-2.423,1.517-2.423,3.231m2.429-1.977c.782,0,.637.888.637.96H69.982c0-.092.145-.96.9-.96" transform="translate(-47.062 -29.089)" fill="#fff" fill-rule="evenodd"/>
      <path id="Path_170" data-name="Path 170" d="M96.142,46.376l.248-1.526a3.307,3.307,0,0,1-1.146.344c-.983,0-1.377-.758-1.377-1.573,0-1.653.845-2.562,1.786-2.562a2.448,2.448,0,0,1,1.272.4l.226-1.483a4.931,4.931,0,0,0-1.56-.343c-1.6,0-3.154,1.4-3.154,4.035,0,1.746.84,2.9,2.493,2.9a6.333,6.333,0,0,0,1.212-.192" transform="translate(-63.551 -25.11)" fill="#fff" fill-rule="evenodd"/>
      <path id="Path_171" data-name="Path 171" d="M37.011,43.683a4.74,4.74,0,0,0-1.678.308l-.2,1.206a4.332,4.332,0,0,1,1.509-.247c.516,0,.893.058.893.482a.9.9,0,0,1-.046.352s-.407-.034-.6-.034c-1.2,0-2.456.517-2.456,2.075a1.322,1.322,0,0,0,1.337,1.509,1.8,1.8,0,0,0,1.421-.643l-.046.535h1.22l.544-3.856a1.642,1.642,0,0,0-1.9-1.688m.3,3.139c.027.236-.146,1.339-.98,1.339a.508.508,0,0,1-.542-.528c0-.383.206-.843,1.221-.843a.869.869,0,0,1,.3.033h0" transform="translate(-23.675 -29.159)" fill="#fff" fill-rule="evenodd"/>
      <path id="Path_172" data-name="Path 172" d="M49.488,49.325c.312,0,2.1.08,2.1-1.78,0-1.739-1.651-1.4-1.651-2.094,0-.348.269-.457.761-.457.195,0,.946.063.946.063l.175-1.236a6.378,6.378,0,0,0-1.278-.11c-1.024,0-2.065.413-2.065,1.828,0,1.6,1.734,1.442,1.734,2.117,0,.451-.485.487-.858.487a4.473,4.473,0,0,1-1.23-.213l-.185,1.224a4.354,4.354,0,0,0,1.554.172" transform="translate(-32.955 -29.186)" fill="#fff" fill-rule="evenodd"/>
      <path id="Path_173" data-name="Path 173" d="M132.285,40.128l-.3,1.874a1.827,1.827,0,0,0-1.338-.728c-1.269,0-2.327,1.547-2.327,3.323,0,1.147.564,2.271,1.718,2.271a1.726,1.726,0,0,0,1.289-.585l-.061.5h1.347l1.058-6.657Zm-.643,3.653c0,.739-.362,1.727-1.113,1.727-.5,0-.732-.423-.732-1.087,0-1.085.482-1.8,1.091-1.8C131.386,42.62,131.642,42.967,131.642,43.782Z" transform="translate(-88.221 -25.602)" fill="#fff" fill-rule="evenodd"/>
      <path id="Path_174" data-name="Path 174" d="M15.738,46.782l.843-5.026.124,5.026h.954l1.78-5.026-.788,5.026h1.418l1.092-6.666H18.968L17.6,44.206l-.071-4.09H15.51L14.4,46.782Z" transform="translate(-9.902 -25.592)" fill="#fff" fill-rule="evenodd"/>
      <path id="Path_175" data-name="Path 175" d="M83.833,49.385c.4-2.317.478-4.2,1.44-3.855a5.436,5.436,0,0,1,.514-1.623,1.427,1.427,0,0,0-.267-.018c-.62,0-1.08.857-1.08.857l.123-.787h-1.29l-.864,5.426Z" transform="translate(-56.657 -29.364)" fill="#fff" fill-rule="evenodd"/>
      <path id="Path_176" data-name="Path 176" d="M108.856,43.683a4.742,4.742,0,0,0-1.678.308l-.2,1.206a4.332,4.332,0,0,1,1.509-.247c.516,0,.893.058.893.482a.909.909,0,0,1-.046.352s-.407-.034-.6-.034c-1.2,0-2.456.517-2.456,2.075a1.322,1.322,0,0,0,1.337,1.509,1.8,1.8,0,0,0,1.421-.643l-.045.535h1.22l.544-3.856a1.642,1.642,0,0,0-1.9-1.688m.3,3.139c.027.236-.146,1.339-.98,1.339a.507.507,0,0,1-.542-.528c0-.383.206-.843,1.221-.843a.874.874,0,0,1,.3.033h0" transform="translate(-73.069 -29.159)" fill="#fff" fill-rule="evenodd"/>
      <path id="Path_177" data-name="Path 177" d="M121.043,49.385c.4-2.317.478-4.2,1.44-3.855A5.441,5.441,0,0,1,123,43.907a1.427,1.427,0,0,0-.267-.018c-.62,0-1.08.857-1.08.857l.124-.787h-1.29l-.864,5.426Z" transform="translate(-82.239 -29.364)" fill="#fff" fill-rule="evenodd"/>
    </g>
  </g>
</svg>
