<svg id="Group_630" data-name="Group 630" xmlns="http://www.w3.org/2000/svg" xmlns:xlink="http://www.w3.org/1999/xlink" width="50" height="35" viewBox="0 0 50 35">
  <defs>
    <clipPath id="clip-path">
      <rect id="Rectangle_146" data-name="Rectangle 146" width="50" height="35" fill="none"/>
    </clipPath>
  </defs>
  <g id="Group_629" data-name="Group 629" clip-path="url(#clip-path)">
    <path id="Path_157" data-name="Path 157" d="M49.99,32a2.979,2.979,0,0,1-2.958,3H2.958A2.992,2.992,0,0,1,0,32v-29A2.977,2.977,0,0,1,2.958,0H47.042A2.985,2.985,0,0,1,50,3V32Z" fill="#fff"/>
    <path id="Path_158" data-name="Path 158" d="M38.614,116.97l-1.172-5.719a1.394,1.394,0,0,0-1.513-1.051h-5.38l-.049.258c4.189,1.041,6.962,3.529,8.114,6.512" transform="translate(-27.522 -99.277)" fill="#f79f1a"/>
    <path id="Path_159" data-name="Path 159" d="M189.153,111.4h-3.486L183.5,124.335h3.476Z" transform="translate(-165.584 -100.358)" fill="#059bbf"/>
    <path id="Path_160" data-name="Path 160" d="M72.586,124.416,78.053,111.5H74.373l-3.4,8.822-.361-1.328a13.673,13.673,0,0,0-4.814-5.363l3.1,10.794Z" transform="translate(-59.375 -100.448)" fill="#059bbf"/>
    <path id="Path_161" data-name="Path 161" d="M251.13,118.041c.01-1.467-.918-2.587-2.919-3.519-1.22-.595-1.963-1-1.953-1.606,0-.535.625-1.11,1.992-1.11a6.305,6.305,0,0,1,2.6.5l.312.149.469-2.805a8.977,8.977,0,0,0-3.115-.545c-3.437,0-5.848,1.754-5.868,4.272-.02,1.863,1.728,2.894,3.046,3.519,1.347.634,1.806,1.041,1.8,1.606-.01.862-1.074,1.259-2.08,1.259a7.3,7.3,0,0,1-3.271-.674l-.449-.208-.488,2.894a10.826,10.826,0,0,0,3.866.684c3.671,0,6.044-1.725,6.063-4.411" transform="translate(-217.65 -98.286)" fill="#059bbf"/>
    <path id="Path_162" data-name="Path 162" d="M344.774,122.493h4.452c.107.446.42,1.943.42,1.943h3.222L350.056,111.5h-2.685a1.718,1.718,0,0,0-1.816,1.071L340.4,124.426h3.652c0,.01.586-1.586.723-1.933m2.382-6.274c-.02.04.293-.743.459-1.239l.234,1.12s.664,3.093.8,3.737h-2.88c.293-.743,1.386-3.618,1.386-3.618" transform="translate(-307.164 -100.448)" fill="#059bbf"/>
    <path id="Path_163" data-name="Path 163" d="M47.032,0H2.958A2.977,2.977,0,0,0,0,2.993V6.106H49.99V2.993A2.971,2.971,0,0,0,47.032,0" fill="#059bbf"/>
    <path id="Path_164" data-name="Path 164" d="M47.032,297.506H2.958A2.977,2.977,0,0,1,0,294.512V291.4H49.99v3.112a2.971,2.971,0,0,1-2.958,2.993" transform="translate(0 -262.516)" fill="#f79f1a"/>
  </g>
</svg>
