<svg xmlns="http://www.w3.org/2000/svg" xmlns:xlink="http://www.w3.org/1999/xlink" width="124" height="59" viewBox="0 0 124 59">
  <defs>
    <clipPath id="clip-path">
      <rect id="Rectangle_9" data-name="Rectangle 9" width="100.294" height="38.07" fill="#a3a3a3"/>
    </clipPath>
  </defs>
  <g id="Group_643" data-name="Group 643" transform="translate(-496 -744)">
    <rect id="Rectangle_151" data-name="Rectangle 151" width="124" height="59" transform="translate(496 744)" fill="none"/>
    <g id="Group_642" data-name="Group 642" transform="translate(508 754)">
      <path id="Path_26" data-name="Path 26" d="M89.482,11.113,93.536.785h2.085L91.567,11.113Z" transform="translate(-69.401 -0.609)" fill="#a3a3a3"/>
      <path id="Path_27" data-name="Path 27" d="M132.771,11.113,136.824.785h3.121l-.894,7.045L143.672.785H146.8l-4.054,10.328h-1.938L144,2.983l-5.241,8.13h-2.008l1.147-8.13-3.19,8.13Z" transform="translate(-102.976 -0.609)" fill="#a3a3a3"/>
      <path id="Path_28" data-name="Path 28" d="M217.409,11.113H215.14l.018-2.346H211.03l-1.772,2.346h-2.212L215.122.785h2.205Zm-2.235-4.086.076-3.832-2.894,3.832Z" transform="translate(-160.582 -0.609)" fill="#a3a3a3"/>
      <g id="Group_32" data-name="Group 32">
        <g id="Group_31" data-name="Group 31" clip-path="url(#clip-path)">
          <path id="Path_29" data-name="Path 29" d="M293.822,6.707l.685-1.74H299l-1.616,4.114a9.128,9.128,0,0,1-2.333,1.117,8.491,8.491,0,0,1-2.707.482,4.281,4.281,0,0,1-2.559-.68,2.544,2.544,0,0,1-1.046-1.948,4.825,4.825,0,0,1,.031-1.155,7.005,7.005,0,0,1,.439-1.592,8.984,8.984,0,0,1,1.8-2.867,8.03,8.03,0,0,1,2.74-1.923A6.69,6.69,0,0,1,296.422,0a3.634,3.634,0,0,1,2.689.8,2.394,2.394,0,0,1,.534,2.085c-.007.047-.014.1-.021.148l-2.219.388a1.418,1.418,0,0,0-.35-1.2,1.791,1.791,0,0,0-1.332-.44,4.086,4.086,0,0,0-2.516.867,5.728,5.728,0,0,0-1.815,2.571,6.6,6.6,0,0,0-.4,1.43,2.238,2.238,0,0,0,.142,1.324,1.786,1.786,0,0,0,1.778.923,4.426,4.426,0,0,0,1.414-.257,7.2,7.2,0,0,0,1.375-.624l.511-1.31Z" transform="translate(-223.928 0)" fill="#a3a3a3"/>
          <path id="Path_30" data-name="Path 30" d="M358.7,11.113,362.757.785h7.658l-.686,1.747h-5.573l-.9,2.29h5.185l-.685,1.74h-5.185l-1.1,2.811h5.77l-.685,1.74Z" transform="translate(-278.208 -0.609)" fill="#a3a3a3"/>
          <path id="Path_31" data-name="Path 31" d="M412.37,5.013l1.275-3.248h-1.16l.26-.661h3.106l-.26.661h-1.157l-1.274,3.248Z" transform="translate(-319.831 -0.856)" fill="#a3a3a3"/>
          <path id="Path_32" data-name="Path 32" d="M423.265,5.013,424.8,1.1h1.181l-.338,2.666L427.392,1.1h1.184l-1.534,3.909h-.733l1.207-3.077-1.983,3.077h-.76l.434-3.077L424,5.013Z" transform="translate(-328.281 -0.856)" fill="#a3a3a3"/>
          <path id="Path_33" data-name="Path 33" d="M175.2,63.9h15.791l1.927-4.264H176.309a7.686,7.686,0,0,0-6.059,3.142c-2.693,3.366-4.264,10.772-4.264,10.772s-.224,3.142,2.693,3.815,14.176,0,14.176,0a8.05,8.05,0,0,0,6.918-4.937c2.244-4.937-2.02-6.059-2.02-6.059H171.821A3.519,3.519,0,0,1,175.2,63.9M185.3,70.4s1.561,0,1.03,1.346a1.932,1.932,0,0,1-1.681,1.346h-13.5c-1.571-.224-.9-2.693-.9-2.693Z" transform="translate(-128.734 -46.249)" fill="#a3a3a3"/>
          <path id="Path_34" data-name="Path 34" d="M293.5,59.63H272.628L268.561,70.4H286.8a.976.976,0,0,1,.3,1.346c-.459.9-1.014,1.346-1.41,1.346H267.748L266,77.361h18.719s4.4-1.122,5.742-4.937,0-5.61-2.02-6.283H273.854l.834-2.244h17.343Z" transform="translate(-206.307 -46.249)" fill="#a3a3a3"/>
          <g id="Group_34" data-name="Group 34" transform="translate(0 3.959)">
            <path id="Path_35" data-name="Path 35" d="M1.571,17.644,8.752,21.01a3.457,3.457,0,0,1,1.8,2.917c.224,2.244,2.02,15.484,2.02,15.484s0,1.346.9,1.346H31.417a2.285,2.285,0,0,0,1.571-1.571c.449-1.346-.449-1.346-.449-1.346H15.26L16.606,33.8H34.335a2.285,2.285,0,0,0,1.571-1.571.942.942,0,0,0-.924-1.357L17.5,30.884l1.122-3.818H36.81s3.584.9,2.237,4.94c-1.122,3.366-2.6,3.926-2.6,3.926s.807,1.685-.54,4.378-3.591,4.264-4.713,4.264H12.643S9.425,44.8,9.2,41.656,7.181,26.4,7.181,26.4s0-2.468-1.346-3.142C4.565,22.62,0,20.561,0,20.561" transform="translate(0 -17.644)" fill="#a3a3a3"/>
            <path id="Path_36" data-name="Path 36" d="M50.732,143.01a3.366,3.366,0,1,1-3.366-3.366,3.366,3.366,0,0,1,3.366,3.366" transform="translate(-34.126 -112.266)" fill="#a3a3a3"/>
            <path id="Path_37" data-name="Path 37" d="M114.732,143.01a3.366,3.366,0,1,1-3.366-3.366,3.366,3.366,0,0,1,3.366,3.366" transform="translate(-83.764 -112.266)" fill="#a3a3a3"/>
          </g>
        </g>
      </g>
    </g>
  </g>
</svg>
