<svg xmlns="http://www.w3.org/2000/svg" width="124" height="59" viewBox="0 0 124 59">
  <g id="Group_644" data-name="Group 644" transform="translate(-360 -744)">
    <rect id="Rectangle_149" data-name="Rectangle 149" width="124" height="59" transform="translate(360 744)" fill="none"/>
    <g id="free-shipping" transform="translate(389.24 640.24)">
      <ellipse id="Ellipse_7" data-name="Ellipse 7" cx="5.132" cy="4.46" rx="5.132" ry="4.46" transform="matrix(0.731, -0.682, 0.682, 0.731, 16.728, 145.303)" fill="#a3a3a3"/>
      <ellipse id="Ellipse_8" data-name="Ellipse 8" cx="5.132" cy="4.46" rx="5.132" ry="4.46" transform="matrix(0.731, -0.682, 0.682, 0.731, 44.161, 145.305)" fill="#a3a3a3"/>
      <rect id="Rectangle_8" data-name="Rectangle 8" width="4.333" height="4.333" rx="2.166" transform="translate(0.477 122.508)" fill="#a3a3a3"/>
      <path id="Path_24" data-name="Path 24" d="M43.75,144.613a8.694,8.694,0,0,1,8.23-6.831,6.151,6.151,0,0,1,6.33,6.412c4.024.105,5.145-5.194,5.145-5.194.339-1.482.845-4.371,1.269-7.206a4.791,4.791,0,0,0-.308-2.591,44.427,44.427,0,0,0-3.8-7.039,7.727,7.727,0,0,0-6.408-3.36c-1.594-.025-3.158-.041-4.339-.041l-.01-.01a4.952,4.952,0,0,0-4.617-4.732c-1.7-.151-8.416-.261-11.641-.261-1.281,0-3.12.018-4.98.048V113.8H6.243a2.166,2.166,0,0,0-2.167,2.167v.01a2.157,2.157,0,0,0,2.157,2.157h4.508a2.157,2.157,0,0,1,2,2.149v.011a2.167,2.167,0,0,1-2.164,2.173H8.263A2.166,2.166,0,0,0,6.1,124.634h0A2.166,2.166,0,0,0,8.263,126.8h2.312a2.167,2.167,0,0,1,2.167,2.167h0a2.167,2.167,0,0,1-2.167,2.167H1.927A2.167,2.167,0,0,0-.24,133.3h0a2.167,2.167,0,0,0,2.167,2.167h8.648a2.167,2.167,0,0,1,2.167,2.167h0a2.167,2.167,0,0,1-2.167,2.164H7.9a2.166,2.166,0,0,0-2.166,2.166h0A2.167,2.167,0,0,0,7.9,144.132l8.534-.006.709-1.767h0a8.668,8.668,0,0,1,7.4-4.578,6.168,6.168,0,0,1,6.309,6.836H43.749m5.921-22.849c1.133,0,2.6.015,4.071.039a5.151,5.151,0,0,1,4.281,2.247,40.906,40.906,0,0,1,2.691,4.707,1.456,1.456,0,0,1-1.36,1.963H48.537Z" fill="#a3a3a3"/>
    </g>
  </g>
</svg>
